<svg id="Layer_1" data-name="Layer 1" xmlns="http://www.w3.org/2000/svg" xmlns:xlink="http://www.w3.org/1999/xlink" viewBox="0 0 400 100"><defs><style>.cls-1{fill:url(#New_Gradient_Swatch_copy_4);}.cls-2{fill:url(#New_Gradient_Swatch_copy_4-2);}.cls-3{fill:#35858b;}.cls-4{fill:#5b5c5e;}</style><linearGradient id="New_Gradient_Swatch_copy_4" x1="49.49" y1="83.45" x2="69.41" y2="65.19" gradientTransform="translate(0)" gradientUnits="userSpaceOnUse"><stop offset="0" stop-color="#4cd9df"/><stop offset="1" stop-color="#00c9d2"/></linearGradient><linearGradient id="New_Gradient_Swatch_copy_4-2" x1="79.22" y1="15.13" x2="55.44" y2="36.15" xlink:href="#New_Gradient_Swatch_copy_4"/></defs><title>Untitled-1</title><path class="cls-1" d="M68.49,59.78l-4-4a3.48,3.48,0,0,0-4.94,0l-3.27,3.27-.68.73L36.51,79.1a1.15,1.15,0,0,0,.81,2h6.79a7.92,7.92,0,0,0,5.63-2.36L62.05,66.28l4,4a8.1,8.1,0,0,0,5.77,2.41h9.46L68.47,59.8Z"/><path class="cls-2" d="M55.61,42.18l4,4a3.48,3.48,0,0,0,4.94,0l3.26-3.27.69-.74L87.58,22.87a1.15,1.15,0,0,0-.8-2H80.06a8.07,8.07,0,0,0-5.75,2.4L62.05,35.68l-4-4.09a8,8,0,0,0-5.63-2.35H42.82L55.63,42.16Z"/><path class="cls-3" d="M46.89,51l-4,4.06A8.17,8.17,0,0,0,40.5,60.8v9.58L53.31,57.46l0,0,4-4a3.55,3.55,0,0,0,0-5L34.18,25.19a1.13,1.13,0,0,0-1.93.81v6.82a8.15,8.15,0,0,0,2.37,5.78Z"/><path class="cls-3" d="M89.51,63.38,77.28,51l4.06-4.11a8,8,0,0,0,2.29-5.62V31.57L70.88,44.5l0,0-3.9,4a3.57,3.57,0,0,0,0,5l3.92,4.07,0,0L90,76.81A1.11,1.11,0,0,0,91.85,76v-6.9A8.13,8.13,0,0,0,89.51,63.38Z"/><path class="cls-4" d="M101.44,34.71a3.7,3.7,0,0,1-2.23-.51,2.18,2.18,0,0,1-.65-1.82V31.5a2.08,2.08,0,0,1,.72-1.84,4,4,0,0,1,2.21-.49,3.83,3.83,0,0,1,2.28.51,2.22,2.22,0,0,1,.65,1.82v.88a2.09,2.09,0,0,1-.7,1.84A4,4,0,0,1,101.44,34.71Zm2.84,25.08a2.8,2.8,0,0,1-.79,2,2.69,2.69,0,0,1-2,.81,2.66,2.66,0,0,1-2-.81,2.8,2.8,0,0,1-.79-2V40.57a2.78,2.78,0,0,1,.79-2,2.67,2.67,0,0,1,2-.82,2.7,2.7,0,0,1,2,.82,2.78,2.78,0,0,1,.79,2Z"/><path class="cls-4" d="M123.31,37.27a8.22,8.22,0,0,1,5.24,1.44A7.34,7.34,0,0,1,131,42.55a19.62,19.62,0,0,1,.68,5.33V59.79a2.84,2.84,0,0,1-.79,2,2.89,2.89,0,0,1-4,0,2.84,2.84,0,0,1-.79-2V47.88a9.13,9.13,0,0,0-.39-2.77,3.91,3.91,0,0,0-1.42-2,5,5,0,0,0-2.93-.74,6.21,6.21,0,0,0-3.14.74,5.1,5.1,0,0,0-2,2,5.65,5.65,0,0,0-.67,2.77V59.79a2.84,2.84,0,0,1-.79,2,2.89,2.89,0,0,1-4,0,2.84,2.84,0,0,1-.79-2V40.57a2.82,2.82,0,0,1,.79-2,2.86,2.86,0,0,1,4,0,2.82,2.82,0,0,1,.79,2v2l-.7-.14a9.17,9.17,0,0,1,1.21-1.69A11.75,11.75,0,0,1,118,39a9.15,9.15,0,0,1,2.42-1.28A8.46,8.46,0,0,1,123.31,37.27Z"/><path class="cls-4" d="M138,38.2h11a2.53,2.53,0,0,1,2.61,2.61,2.41,2.41,0,0,1-.74,1.79,2.59,2.59,0,0,1-1.87.72H138a2.55,2.55,0,0,1-2.61-2.61,2.41,2.41,0,0,1,.74-1.79A2.59,2.59,0,0,1,138,38.2Zm5-5.82a2.61,2.61,0,0,1,2,.82,2.84,2.84,0,0,1,.77,2V55.93A2,2,0,0,0,146,57a1.43,1.43,0,0,0,.69.6,2.38,2.38,0,0,0,1,.19,2.45,2.45,0,0,0,1-.21,2.59,2.59,0,0,1,1.07-.21,1.55,1.55,0,0,1,1.19.61,2.41,2.41,0,0,1,.53,1.67A2.45,2.45,0,0,1,150,61.79a5.85,5.85,0,0,1-3,.84,15.85,15.85,0,0,1-2.17-.16,6,6,0,0,1-2.23-.79,4.93,4.93,0,0,1-1.75-1.93,7.77,7.77,0,0,1-.69-3.59V35.22A2.78,2.78,0,0,1,143,32.38Z"/><path class="cls-4" d="M168.26,63.1a13.69,13.69,0,0,1-6.86-1.66A11.35,11.35,0,0,1,156.93,57a13.09,13.09,0,0,1-1.56-6.42,14.13,14.13,0,0,1,1.7-7.14,12,12,0,0,1,4.45-4.54,11.48,11.48,0,0,1,5.81-1.58,10.61,10.61,0,0,1,4.49,1,12.36,12.36,0,0,1,3.75,2.67,13.26,13.26,0,0,1,2.58,3.93,11.92,11.92,0,0,1,.95,4.75,2.39,2.39,0,0,1-.88,1.82,3,3,0,0,1-1.95.69H158.49l-1.4-4.65h17.08l-1,.93V47.13a4.21,4.21,0,0,0-1-2.42A6.16,6.16,0,0,0,170.05,43a6.07,6.07,0,0,0-2.72-.63,8.69,8.69,0,0,0-2.6.37,5,5,0,0,0-2.1,1.26,6.08,6.08,0,0,0-1.39,2.37,11.5,11.5,0,0,0-.52,3.77,8.15,8.15,0,0,0,1.05,4.26A7.17,7.17,0,0,0,168,58a11.11,11.11,0,0,0,2.75-.28,6.12,6.12,0,0,0,1.65-.68c.42-.26.8-.49,1.14-.67a3.56,3.56,0,0,1,1.58-.42,2.24,2.24,0,0,1,1.7.7,2.27,2.27,0,0,1,.68,1.63,2.93,2.93,0,0,1-1.31,2.28,10.78,10.78,0,0,1-3.39,1.79A13.63,13.63,0,0,1,168.26,63.1Z"/><path class="cls-4" d="M190,59.79a2.77,2.77,0,0,1-2.84,2.84,2.61,2.61,0,0,1-1.95-.81,2.8,2.8,0,0,1-.79-2V31a2.77,2.77,0,0,1,2.83-2.83,2.6,2.6,0,0,1,2,.81,2.84,2.84,0,0,1,.77,2Z"/><path class="cls-4" d="M202.6,59.79a2.77,2.77,0,0,1-2.83,2.84,2.63,2.63,0,0,1-2-.81,2.8,2.8,0,0,1-.79-2V31a2.77,2.77,0,0,1,2.84-2.83,2.63,2.63,0,0,1,2,.81,2.83,2.83,0,0,1,.76,2Z"/><path class="cls-4" d="M211.54,34.71a3.73,3.73,0,0,1-2.24-.51,2.21,2.21,0,0,1-.65-1.82V31.5a2.08,2.08,0,0,1,.72-1.84,4,4,0,0,1,2.21-.49,3.79,3.79,0,0,1,2.28.51,2.19,2.19,0,0,1,.66,1.82v.88a2.11,2.11,0,0,1-.7,1.84A4.06,4.06,0,0,1,211.54,34.71Zm2.84,25.08a2.81,2.81,0,0,1-.8,2,2.66,2.66,0,0,1-2,.81,2.69,2.69,0,0,1-2-.81,2.8,2.8,0,0,1-.79-2V40.57a2.78,2.78,0,0,1,.79-2,2.7,2.7,0,0,1,2-.82,2.67,2.67,0,0,1,2,.82,2.78,2.78,0,0,1,.8,2Z"/><path class="cls-4" d="M240.48,37.27a2.7,2.7,0,0,1,2,.79,2.77,2.77,0,0,1,.79,2V59.79a2.8,2.8,0,0,1-.79,2,2.87,2.87,0,0,1-4,0,2.8,2.8,0,0,1-.79-2V57.51l1,.42a2.61,2.61,0,0,1-.65,1.47,8.49,8.49,0,0,1-1.77,1.69,10.43,10.43,0,0,1-2.63,1.42,9,9,0,0,1-3.28.59,10.62,10.62,0,0,1-5.81-1.66,11.6,11.6,0,0,1-4.12-4.56,14.22,14.22,0,0,1-1.51-6.67,14.36,14.36,0,0,1,1.51-6.73,11.71,11.71,0,0,1,4.07-4.56,10.27,10.27,0,0,1,5.68-1.65,10.78,10.78,0,0,1,3.67.6,11.13,11.13,0,0,1,2.91,1.54,9,9,0,0,1,1.91,1.88,3,3,0,0,1,.67,1.61l-1.67.6V40.11a2.8,2.8,0,0,1,.79-2A2.68,2.68,0,0,1,240.48,37.27ZM231.08,58a6.23,6.23,0,0,0,3.58-1,6.82,6.82,0,0,0,2.4-2.79,9,9,0,0,0,.86-3.95,9.12,9.12,0,0,0-.86-4,6.82,6.82,0,0,0-2.4-2.79,6.72,6.72,0,0,0-7.12,0,6.87,6.87,0,0,0-2.39,2.79,9,9,0,0,0-.86,4,8.84,8.84,0,0,0,.86,3.95A6.87,6.87,0,0,0,227.54,57,6.21,6.21,0,0,0,231.08,58Z"/><path class="cls-4" d="M247.88,58.77a2.62,2.62,0,0,1-.42-1.68,2.24,2.24,0,0,1,1.21-1.77,2.49,2.49,0,0,1,1.58-.39,2.65,2.65,0,0,1,1.63.86,10.86,10.86,0,0,0,2.84,2.09,8.21,8.21,0,0,0,3.72.75,12,12,0,0,0,1.54-.21,2.93,2.93,0,0,0,1.46-.75,2.31,2.31,0,0,0,.63-1.79,2,2,0,0,0-.7-1.63,6,6,0,0,0-1.83-1c-.76-.28-1.61-.54-2.54-.79s-1.95-.59-3-.93a11.94,11.94,0,0,1-2.76-1.33A6.34,6.34,0,0,1,249.23,48a6.61,6.61,0,0,1-.79-3.4,6.1,6.1,0,0,1,1.3-3.95,8.49,8.49,0,0,1,3.37-2.52,11,11,0,0,1,4.35-.88,14.24,14.24,0,0,1,3,.35,11.8,11.8,0,0,1,3,1.11,7.46,7.46,0,0,1,2.42,2,3.18,3.18,0,0,1,.61,1.67,2,2,0,0,1-.89,1.77,2.17,2.17,0,0,1-1.62.49,2.39,2.39,0,0,1-1.54-.63,5.57,5.57,0,0,0-2.12-1.63,7.3,7.3,0,0,0-3-.6,7.71,7.71,0,0,0-1.52.16,3,3,0,0,0-1.42.7,2.55,2.55,0,0,0,.1,3.4,5.14,5.14,0,0,0,1.88,1c.79.27,1.64.52,2.54.77s1.87.54,2.84.88a11.21,11.21,0,0,1,2.65,1.35,6.27,6.27,0,0,1,2,2.17,6.78,6.78,0,0,1,.75,3.37,6.14,6.14,0,0,1-1.4,4.05,8.72,8.72,0,0,1-3.49,2.53,11,11,0,0,1-4.28.87,16.54,16.54,0,0,1-5.49-1A9.48,9.48,0,0,1,247.88,58.77Z"/><path class="cls-4" d="M270.31,58.77a2.62,2.62,0,0,1-.42-1.68,2.24,2.24,0,0,1,1.21-1.77,2.48,2.48,0,0,1,1.58-.39,2.65,2.65,0,0,1,1.63.86,10.86,10.86,0,0,0,2.84,2.09,8.21,8.21,0,0,0,3.72.75,12,12,0,0,0,1.54-.21,3,3,0,0,0,1.46-.75,2.31,2.31,0,0,0,.63-1.79,2,2,0,0,0-.7-1.63,5.91,5.91,0,0,0-1.84-1c-.76-.28-1.6-.54-2.53-.79s-1.95-.59-3-.93a11.75,11.75,0,0,1-2.76-1.33,6.25,6.25,0,0,1-2-2.16,6.61,6.61,0,0,1-.79-3.4,6.1,6.1,0,0,1,1.3-3.95,8.49,8.49,0,0,1,3.37-2.52,11,11,0,0,1,4.35-.88,14.32,14.32,0,0,1,3,.35,11.8,11.8,0,0,1,3,1.11,7.57,7.57,0,0,1,2.42,2,3.27,3.27,0,0,1,.61,1.67,2,2,0,0,1-.89,1.77,2.17,2.17,0,0,1-1.62.49,2.37,2.37,0,0,1-1.54-.63,5.57,5.57,0,0,0-2.12-1.63,7.31,7.31,0,0,0-3.05-.6,7.62,7.62,0,0,0-1.51.16,3,3,0,0,0-1.42.7,2.55,2.55,0,0,0,.1,3.4,5.14,5.14,0,0,0,1.88,1c.79.27,1.64.52,2.54.77s1.87.54,2.83.88a11.09,11.09,0,0,1,2.66,1.35,6.37,6.37,0,0,1,1.95,2.17,6.78,6.78,0,0,1,.75,3.37,6.14,6.14,0,0,1-1.4,4.05,8.72,8.72,0,0,1-3.49,2.53,11.06,11.06,0,0,1-4.28.87,16.54,16.54,0,0,1-5.49-1A9.48,9.48,0,0,1,270.31,58.77Z"/><path class="cls-4" d="M305.91,63.1A13.7,13.7,0,0,1,299,61.44,11.35,11.35,0,0,1,294.57,57,13.2,13.2,0,0,1,293,50.53a14.13,14.13,0,0,1,1.69-7.14,12.13,12.13,0,0,1,4.45-4.54A11.51,11.51,0,0,1,305,37.27a10.58,10.58,0,0,1,4.49,1,12.12,12.12,0,0,1,3.75,2.67,12.88,12.88,0,0,1,2.58,3.93,11.93,11.93,0,0,1,1,4.75,2.4,2.4,0,0,1-.89,1.82,3,3,0,0,1-1.95.69H296.13l-1.39-4.65h17.08l-1,.93V47.13a4.27,4.27,0,0,0-1-2.42A6.35,6.35,0,0,0,307.7,43a6.11,6.11,0,0,0-2.73-.63,8.69,8.69,0,0,0-2.6.37,5,5,0,0,0-2.1,1.26,6.2,6.2,0,0,0-1.39,2.37,11.8,11.8,0,0,0-.51,3.77,8.25,8.25,0,0,0,1,4.26A7.17,7.17,0,0,0,305.63,58a11.08,11.08,0,0,0,2.74-.28A6.12,6.12,0,0,0,310,57c.42-.26.8-.49,1.14-.67a3.57,3.57,0,0,1,1.59-.42,2.23,2.23,0,0,1,1.69.7,2.27,2.27,0,0,1,.68,1.63,3,3,0,0,1-1.3,2.28,10.84,10.84,0,0,1-3.4,1.79A13.57,13.57,0,0,1,305.91,63.1Z"/><path class="cls-4" d="M321.91,38.2h11a2.55,2.55,0,0,1,2.61,2.61,2.39,2.39,0,0,1-.75,1.79,2.55,2.55,0,0,1-1.86.72h-11a2.55,2.55,0,0,1-2.6-2.61,2.41,2.41,0,0,1,.74-1.79A2.58,2.58,0,0,1,321.91,38.2Zm5-5.82a2.61,2.61,0,0,1,2,.82,2.84,2.84,0,0,1,.77,2V55.93a2,2,0,0,0,.25,1.07,1.46,1.46,0,0,0,.7.6,2.35,2.35,0,0,0,1,.19,2.45,2.45,0,0,0,1-.21,2.59,2.59,0,0,1,1.07-.21,1.57,1.57,0,0,1,1.19.61,2.51,2.51,0,0,1-.89,3.81,5.86,5.86,0,0,1-3.05.84,15.72,15.72,0,0,1-2.16-.16,6,6,0,0,1-2.23-.79,4.93,4.93,0,0,1-1.75-1.93,7.76,7.76,0,0,1-.7-3.59V35.22a2.8,2.8,0,0,1,2.84-2.84Z"/><path class="cls-4" d="M340.15,58.77a2.62,2.62,0,0,1-.42-1.68,2.29,2.29,0,0,1,1.21-1.77,2.52,2.52,0,0,1,1.59-.39,2.67,2.67,0,0,1,1.63.86A10.66,10.66,0,0,0,347,57.88a8.29,8.29,0,0,0,3.73.75,12.09,12.09,0,0,0,1.53-.21,3,3,0,0,0,1.47-.75,2.31,2.31,0,0,0,.63-1.79,2.08,2.08,0,0,0-.7-1.63,6,6,0,0,0-1.84-1c-.76-.28-1.6-.54-2.54-.79s-1.94-.59-2.95-.93a12,12,0,0,1-2.77-1.33A6.34,6.34,0,0,1,341.5,48a6.61,6.61,0,0,1-.79-3.4,6.16,6.16,0,0,1,1.3-3.95,8.53,8.53,0,0,1,3.38-2.52,11,11,0,0,1,4.35-.88,14.16,14.16,0,0,1,3,.35,11.73,11.73,0,0,1,3,1.11,7.57,7.57,0,0,1,2.42,2,3.26,3.26,0,0,1,.6,1.67,2,2,0,0,1-.88,1.77,2.21,2.21,0,0,1-1.63.49,2.41,2.41,0,0,1-1.54-.63,5.54,5.54,0,0,0-2.11-1.63,7.35,7.35,0,0,0-3-.6,7.54,7.54,0,0,0-1.51.16,2.93,2.93,0,0,0-1.42.7,2.14,2.14,0,0,0-.61,1.7,2.2,2.2,0,0,0,.7,1.7,5.19,5.19,0,0,0,1.89,1c.79.27,1.63.52,2.53.77s1.88.54,2.84.88a11,11,0,0,1,2.65,1.35,6.4,6.4,0,0,1,2,2.17,6.89,6.89,0,0,1,.74,3.37A6.13,6.13,0,0,1,358,59.7a8.86,8.86,0,0,1-3.49,2.53,11.1,11.1,0,0,1-4.28.87,16.55,16.55,0,0,1-5.5-1A9.48,9.48,0,0,1,340.15,58.77Z"/></svg>